<svg width="22" height="24" viewBox="0 0 22 24" fill="none" xmlns="http://www.w3.org/2000/svg">
<path d="M9.59053 20.3673H11.4349V18.8789C12.3131 18.7003 13.0684 18.3133 13.7008 17.718C14.3331 17.1226 14.6493 16.2395 14.6493 15.0686C14.6493 14.2351 14.4385 13.471 14.0169 12.7764C13.5954 12.0818 12.7522 11.4766 11.4876 10.9606C10.4337 10.5637 9.70471 10.2164 9.30071 9.91868C8.89671 9.621 8.69471 9.21417 8.69471 8.69819C8.69471 8.1822 8.85719 7.77537 9.18215 7.47769C9.5071 7.18001 9.97697 7.03117 10.5917 7.03117C11.1538 7.03117 11.593 7.18497 11.9091 7.49257C12.2253 7.80018 12.4536 8.1822 12.5942 8.63865L14.2804 7.86468C14.0872 7.17008 13.7315 6.5648 13.2133 6.04882C12.6952 5.53283 12.1199 5.24507 11.4876 5.18554V3.69713H9.64323V5.18554C8.76498 5.40384 8.07994 5.84044 7.58811 6.49534C7.09629 7.15024 6.85038 7.88452 6.85038 8.69819C6.85038 9.63093 7.0919 10.3851 7.57494 10.9606C8.05798 11.5361 8.81767 12.0322 9.85401 12.449C10.9606 12.9054 11.7291 13.3123 12.1594 13.6695C12.5898 14.0267 12.8049 14.4931 12.8049 15.0686C12.8049 15.7235 12.5986 16.2047 12.1858 16.5123C11.773 16.82 11.2768 16.9738 10.6971 16.9738C10.1175 16.9738 9.60371 16.7703 9.1558 16.3635C8.70789 15.9567 8.37854 15.3464 8.16776 14.5328L6.42882 15.3067C6.67473 16.2593 7.05677 17.0283 7.57494 17.6138C8.09311 18.1992 8.76498 18.6011 9.59053 18.8194V20.3673ZM10.539 23.9395C9.08115 23.9395 7.71107 23.627 6.42882 23.0018C5.14657 22.3767 4.03119 21.5283 3.08267 20.4566C2.13416 19.385 1.38325 18.1248 0.82995 16.6761C0.27665 15.2274 0 13.6794 0 12.0322C0 10.3851 0.27665 8.83711 0.82995 7.38839C1.38325 5.93966 2.13416 4.67948 3.08267 3.60782C4.03119 2.53616 5.14657 1.68777 6.42882 1.06264C7.71107 0.437505 9.08115 0.124939 10.539 0.124939C11.9969 0.124939 13.367 0.437505 14.6493 1.06264C15.9315 1.68777 17.0469 2.53616 17.9954 3.60782C18.9439 4.67948 19.6948 5.93966 20.2481 7.38839C20.8014 8.83711 21.0781 10.3851 21.0781 12.0322C21.0781 13.6794 20.8014 15.2274 20.2481 16.6761C19.6948 18.1248 18.9439 19.385 17.9954 20.4566C17.0469 21.5283 15.9315 22.3767 14.6493 23.0018C13.367 23.627 11.9969 23.9395 10.539 23.9395Z" fill="white"/>
</svg>
